<?xml version="1.0" encoding="UTF-8"?>
<svg xmlns="http://www.w3.org/2000/svg" xmlns:xlink="http://www.w3.org/1999/xlink" width="24px" height="24px" viewBox="0 0 24 24" version="1.1">
<g id="surface1">
<path style=" stroke:none;fill-rule:nonzero;fill:rgb(0%,0%,0%);fill-opacity:1;" d="M 5 8 L 5 20 L 19 20 L 19 8 Z M 5 6 L 19 6 L 19 4 L 5 4 Z M 20 22 L 4 22 C 3.449219 22 3 21.550781 3 21 L 3 3 C 3 2.449219 3.449219 2 4 2 L 20 2 C 20.550781 2 21 2.449219 21 3 L 21 21 C 21 21.550781 20.550781 22 20 22 Z M 7 10 L 11 10 L 11 14 L 7 14 Z M 7 16 L 17 16 L 17 18 L 7 18 Z M 13 11 L 17 11 L 17 13 L 13 13 Z M 13 11 "/>
</g>
</svg>
