<svg xmlns="http://www.w3.org/2000/svg" width="24" height="24" viewBox="0 0 24 24"><title>rss</title><g fill="#888" fill-rule="nonzero"><path d="M4.356 5.066c0-.59.478-1.066 1.067-1.066A14.586 14.586 0 0 1 20 18.577a1.067 1.067 0 0 1-2.133.001A12.453 12.453 0 0 0 5.422 6.133c-.59 0-1.067-.478-1.066-1.067Z"/><path d="M4.356 11.467c0-.59.477-1.067 1.066-1.067a8.178 8.178 0 0 1 8.178 8.178 1.067 1.067 0 0 1-2.133 0 6.045 6.045 0 0 0-6.045-6.045c-.589 0-1.066-.477-1.066-1.066ZM5.422 20a1.422 1.422 0 1 0 0-2.844 1.422 1.422 0 0 0 0 2.844Z"/></g></svg>