<?xml version="1.0" encoding="UTF-8"?>
<svg xmlns="http://www.w3.org/2000/svg" xmlns:xlink="http://www.w3.org/1999/xlink" width="24px" height="24px" viewBox="0 0 24 24" version="1.1">
<g id="surface1">
<path style=" stroke:none;fill-rule:nonzero;fill:rgb(0%,0%,0%);fill-opacity:1;" d="M 8.109375 13.5 L 6.316406 13.5 C 5.984375 13.5 5.714844 13.835938 5.714844 14.25 L 5.714844 23.25 C 5.714844 23.664062 5.984375 24 6.316406 24 L 8.109375 24 C 8.441406 24 8.707031 23.664062 8.707031 23.25 L 8.707031 14.25 C 8.707031 13.835938 8.441406 13.5 8.109375 13.5 Z M 3.324219 18 L 1.527344 18 C 1.199219 18 0.929688 18.335938 0.929688 18.75 L 0.929688 23.25 C 0.929688 23.664062 1.199219 24 1.527344 24 L 3.324219 24 C 3.652344 24 3.921875 23.664062 3.921875 23.25 L 3.921875 18.75 C 3.921875 18.335938 3.652344 18 3.324219 18 Z M 12.898438 9 L 11.101562 9 C 10.773438 9 10.503906 9.335938 10.503906 9.75 L 10.503906 23.25 C 10.503906 23.664062 10.773438 24 11.101562 24 L 12.898438 24 C 13.226562 24 13.496094 23.664062 13.496094 23.25 L 13.496094 9.75 C 13.496094 9.335938 13.226562 9 12.898438 9 Z M 17.683594 4.5 L 15.890625 4.5 C 15.558594 4.5 15.292969 4.835938 15.292969 5.25 L 15.292969 23.25 C 15.292969 23.664062 15.558594 24 15.890625 24 L 17.683594 24 C 18.015625 24 18.285156 23.664062 18.285156 23.25 L 18.285156 5.25 C 18.285156 4.835938 18.015625 4.5 17.683594 4.5 Z M 22.472656 0 L 20.675781 0 C 20.347656 0 20.078125 0.335938 20.078125 0.75 L 20.078125 23.25 C 20.078125 23.664062 20.347656 24 20.675781 24 L 22.472656 24 C 22.800781 24 23.070312 23.664062 23.070312 23.25 L 23.070312 0.75 C 23.070312 0.335938 22.800781 0 22.472656 0 Z M 22.472656 0 "/>
</g>
</svg>
