<svg xmlns="http://www.w3.org/2000/svg" width="24" height="24" viewBox="0 0 24 24"><title>up</title><g fill="none" fill-rule="evenodd"><path d="M0 0h24v24H0z"/><path fill="#000" fill-rule="nonzero" d="m21.576 10.859-.008-.009-8.525-8.46a1.325 1.325 0 0 0-.223-.176l-.245-.133-.168-.055h-.123a1.588 1.588 0 0 0-.569 0h-.245l-.19.1a1.35 1.35 0 0 0-.29.21L2.432 10.85a1.44 1.44 0 0 0-.008 2.05l.008.007a1.505 1.505 0 0 0 2.064 0l5.1-5.042a.561.561 0 0 1 .788.007.55.55 0 0 1 .16.38v12.3c0 .8.654 1.448 1.461 1.448.808 0 1.462-.648 1.462-1.449v-12.3a.56.56 0 0 1 .948-.387l5.077 5.043c.58.554 1.497.554 2.076 0a1.44 1.44 0 0 0 .008-2.048Z"/></g></svg>